<svg xmlns="http://www.w3.org/2000/svg" width="12.507" height="14.449" viewBox="0 0 12.507 14.449">
  <path id="Path_3" data-name="Path 3" d="M8.954,14.45h0A8.621,8.621,0,0,1,6.84,10.557a9.249,9.249,0,0,1,.617-4.592A8.571,8.571,0,0,0,9.116,5.2a10,10,0,0,0,1.336-1.372,6.741,6.741,0,0,1,2.056,5.088,6.078,6.078,0,0,1-1.777,4.065,8.886,8.886,0,0,1-1.776,1.472Zm-5.4,0h0a8.885,8.885,0,0,1-1.776-1.472A6.078,6.078,0,0,1,0,8.912,6.675,6.675,0,0,1,2.055,3.824,10,10,0,0,0,3.39,5.2a8.641,8.641,0,0,0,1.66.769,9.254,9.254,0,0,1,.616,4.592,8.615,8.615,0,0,1-2.113,3.892ZM6.388,5.1A4.908,4.908,0,0,1,2.98,3.215s0,0,.01-.007a7.492,7.492,0,0,1,1.237-.589L3.044,1.208A.67.67,0,1,1,4.071.346l1.512,1.8a.728.728,0,0,1,.077.114A4.7,4.7,0,0,1,6.2,2.232a5.816,5.816,0,0,1,.763.053l0,0a.733.733,0,0,1,.04-.064L8.357.286a.67.67,0,0,1,1.1.77L8.369,2.608a9.056,9.056,0,0,1,1.185.469A4.13,4.13,0,0,1,6.388,5.1Z" transform="translate(0 0)" fill="#fff"/>
</svg>
