<svg xmlns="http://www.w3.org/2000/svg" width="12.499" height="14.313" viewBox="0 0 12.499 14.313">
  <path id="Oval_8" data-name="Oval 8" d="M6.66,14.313a5.865,5.865,0,0,1-3.508-1.146,5.766,5.766,0,0,1-2.08-2.906,2.316,2.316,0,0,1-.044-.232c-.066-.483-.062-.758.012-.842A.075.075,0,0,1,1.1,9.157a.13.13,0,0,1,.04.008,1.408,1.408,0,0,1,.244.473,8.421,8.421,0,0,0,.375.808,2.3,2.3,0,0,0,.656.791c.007,0,.009,0,.01-.008a1.028,1.028,0,0,0-.173-.316c-.073-.111-.156-.241-.228-.369-.146-.26-.208-.458-.172-.543A.077.077,0,0,1,1.9,9.956l.019,0c.115,0,.307.239.53.515l.01.012c.113.142.23.288.354.425a2.166,2.166,0,0,0,.743.586.021.021,0,0,0,.01,0,.021.021,0,0,0,.011-.014c.011-.044-.068-.161-.168-.311-.059-.089-.117-.175-.166-.26l-.007-.012c-.126-.214-.226-.384-.122-.447a.1.1,0,0,1,.055-.014c.122,0,.315.166.506.346l.078.074.01.009c.149.141.277.263.335.263a.029.029,0,0,0,.019-.006c.044-.037.014-.13-.014-.219s-.064-.2-.025-.263a.129.129,0,0,1,.1-.053h.012a.739.739,0,0,1,.266.116l.009,0c.091.051.2.11.33.172a2.433,2.433,0,0,0,1.459.48A2.394,2.394,0,0,0,8.673,8.989,2.363,2.363,0,0,0,7.188,6.8a.754.754,0,0,1-.245.32.854.854,0,0,1-.425.163c-.07.012-.157.026-.282.051C5.778,7.432.632,8.614.581,8.626c-.007,0-.044,0-.1,0A.678.678,0,0,1,.034,8.5c-.158-.161.287-.964.291-.972a28.772,28.772,0,0,1,1.782-2.9c.052-.051.219-.173.471-.357C3.129,3.871,4.05,3.2,5,2.373A15.509,15.509,0,0,0,6.707.656,2.58,2.58,0,0,0,6.879.4c.136-.217.253-.4.506-.4A.364.364,0,0,1,7.67.112c.158.177.119.528.1.738,0,.021,0,.041-.006.059A13.5,13.5,0,0,1,7.2,2.471a2.716,2.716,0,0,0-.078.423,5.869,5.869,0,0,1,3.816,1.812A5.634,5.634,0,0,1,12.5,8.594,5.787,5.787,0,0,1,6.66,14.313ZM2.532,6.491s.031,0,.085,0a1.908,1.908,0,0,0,1.246-.4,1.558,1.558,0,0,0,.365-1.217,9.953,9.953,0,0,0-.956.717,9.276,9.276,0,0,0-.74.9Z" fill="#fff"/>
</svg>
