<svg xmlns="http://www.w3.org/2000/svg" width="13.4" height="13.418" viewBox="0 0 13.4 13.418">
  <path id="Union_4" data-name="Union 4" d="M6.51,13.305,4.775,10.129l-1.854.538a.217.217,0,0,1-.268-.271l.535-1.812L.113,6.9a.217.217,0,0,1,0-.381l3.1-1.7L2.653,2.911a.216.216,0,0,1,.268-.27l1.906.553L6.51.113a.217.217,0,0,1,.38,0L8.573,3.195l1.905-.553a.217.217,0,0,1,.269.27l-.564,1.908,3.1,1.7a.217.217,0,0,1,0,.381L10.212,8.584l.536,1.812a.217.217,0,0,1-.269.271l-1.853-.538L6.89,13.305a.217.217,0,0,1-.38,0Z" transform="translate(0 0)" fill="#fff"/>
</svg>
