<svg xmlns="http://www.w3.org/2000/svg" width="12.506" height="13.418" viewBox="0 0 12.506 13.418">
  <path id="Oval_9" data-name="Oval 9" d="M6.253,13.418A6,6,0,0,1,0,7.716,5.424,5.424,0,0,1,1.715,3.792a18.221,18.221,0,0,0,.123,2.982.017.017,0,0,0,.012.006c.312-.071.066-4.732.014-5.666A1.479,1.479,0,0,1,4.539.676c.043,0,.084-.005.123-.005A1.518,1.518,0,0,1,4.942.7a1.478,1.478,0,0,1,2.443.421H7.39A1.442,1.442,0,0,1,7.7,1.15a1.478,1.478,0,0,1,2.22.719,1.512,1.512,0,0,1,.316.152,1.478,1.478,0,0,1,2.273,1.247v4.5a5.434,5.434,0,0,1-1.849,4A6.534,6.534,0,0,1,6.253,13.418Z" fill="#fff"/>
</svg>
