<svg xmlns="http://www.w3.org/2000/svg" width="9.915" height="13.252" viewBox="0 0 9.915 13.252">
  <path id="Path_2" data-name="Path 2" d="M4.608,13.252a4.422,4.422,0,0,1-3.28-1.422A4.763,4.763,0,0,1,.046,7.8a6.575,6.575,0,0,1,.62-2.057,3.17,3.17,0,0,0-.081.693,1.248,1.248,0,0,0,.2.655A.084.084,0,0,1,.8,7.073a9.492,9.492,0,0,1,1.06-1.765A9.04,9.04,0,0,1,3.332,4.083a5.793,5.793,0,0,0,.889-.713C5.276,2.19,4.64.022,4.634,0h0s0,0,.007.005a5.522,5.522,0,0,1,1.53,2.428,4.549,4.549,0,0,1-.028,1.649c-.08.581-.15,1.083.073,1.339a.621.621,0,0,0,.5.179l.077,0a.65.65,0,0,0,.583-.307c.332-.6-.393-1.908-.4-1.921h0l.011.005A7.234,7.234,0,0,1,8.527,4.567,4.379,4.379,0,0,1,9.9,7.95a3.722,3.722,0,0,1-1.819,2.88,5.529,5.529,0,0,1-1.641.7,3.579,3.579,0,0,0,1.006-1.291A4.988,4.988,0,0,0,7.3,8.407a.1.1,0,0,1,0,.014,3.624,3.624,0,0,1-.588,1.357,1.9,1.9,0,0,1-1.222.594,1.3,1.3,0,0,0,.745-1.179,1.334,1.334,0,0,0-2.668,0,1.286,1.286,0,0,0,.125.555,1.6,1.6,0,0,1-.534-.958c0,.021-.492,2.156.9,3.146a3.272,3.272,0,0,0,1.911.487,8.784,8.784,0,0,0,2.285-.346s0,0-.006.006A7.113,7.113,0,0,1,4.608,13.252Z" fill="#fff"/>
</svg>
