<svg xmlns="http://www.w3.org/2000/svg" width="13.4" height="11.629" viewBox="0 0 13.4 11.629">
  <path id="Oval_2" data-name="Oval 2" d="M4.677,11.629A4.7,4.7,0,0,0,9.015,8.988c.008-.019-2.785.727-2.7.463.04-.118,1.752-.744,3-1.475a2.84,2.84,0,0,0,1.047-1.309A13.318,13.318,0,0,1,8.547,7.4a7.418,7.418,0,0,1-2.314.237,19.415,19.415,0,0,0,4.3-1.936,3.559,3.559,0,0,0,1.5-1.954A14.082,14.082,0,0,1,9.953,4.776a11.776,11.776,0,0,1-3.546.7c0-.175,1.489-.585,3.067-1.351a17.255,17.255,0,0,0,2.355-1.5A4.19,4.19,0,0,0,13.4,0a21.166,21.166,0,0,1-1.978,1.144A22.061,22.061,0,0,1,4.677,3.071C2.1,3.273,0,5.07,0,7.4A4.469,4.469,0,0,0,4.677,11.629Z" fill="#fff"/>
</svg>
