<svg xmlns="http://www.w3.org/2000/svg" width="12.507" height="12.524" viewBox="0 0 12.507 12.524">
  <path id="Oval_10" data-name="Oval 10" d="M6.154,12.48a7.582,7.582,0,0,1-4.361-2.072A5.922,5.922,0,0,1,0,6.135,6.2,6.2,0,0,1,6.253,0a6.2,6.2,0,0,1,6.254,6.135,6.055,6.055,0,0,1-1.6,4.1.275.275,0,0,0-.09.23c.03.182.3.334.568.481s.544.3.586.492a.272.272,0,0,1-.059.222,5.213,5.213,0,0,1-2.9.82c-.545.029-1.145.044-1.688.044A10.6,10.6,0,0,1,6.154,12.48Zm1.76-6.154a.969.969,0,0,0,.976-.959.956.956,0,0,0-.488-.83.863.863,0,0,1-.862.83h-.6A.969.969,0,0,0,7.915,6.326Zm-4.5-.959a.978.978,0,0,0,1.955,0h-.6a.862.862,0,0,1-.862-.83A.956.956,0,0,0,3.419,5.368Z" fill="#fff"/>
</svg>
