<svg xmlns="http://www.w3.org/2000/svg" width="17.221" height="17.221" viewBox="0 0 17.221 17.221">
  <path id="Oval" d="M5.481,13.413A5.487,5.487,0,0,1,.005,7.938C0,6.377,1.284,4.3,2.358,2.837A31.681,31.681,0,0,1,4.713,0l.013.009a36.722,36.722,0,0,1,3.1,2.828c1.422,1.467,3.118,3.543,3.119,5.1a5.457,5.457,0,0,1-4.478,5.379l-.278-2.706,1.521-2.36L5.972,9.684l-.02-2.033.895-1.4-1.175.637L4.941,4.348,5.1,7.084,3.9,6.879l1.336.986.116,1.911-1.7-.866,1.705,1.705.294,2.8H5.481Z" transform="translate(9.481 -0.006) rotate(45)" fill="#fff"/>
</svg>
