<svg xmlns="http://www.w3.org/2000/svg" width="12.48" height="9.822" viewBox="0 0 12.48 9.822">
  <path id="Path_8" data-name="Path 8" d="M6.767,9.814l-2.9-.952L8.928,5.394a.163.163,0,0,1,.228.043l1.154,1.72a.163.163,0,0,1-.04.224L6.914,9.792a.163.163,0,0,1-.1.031A.167.167,0,0,1,6.767,9.814Zm-4.112-1.2L.113,7.778A.163.163,0,0,1,0,7.623V5.009a.164.164,0,0,1,.038-.1L4.03.081A.164.164,0,0,1,4.155.023H9.294A.164.164,0,0,1,9.456.21L8.839,4.35a.16.16,0,0,1-.068.11L2.8,8.59a.163.163,0,0,1-.093.029A.159.159,0,0,1,2.655,8.611ZM11.078,6.6,9.7,4.711a.165.165,0,0,1-.03-.125L10.43.128A.153.153,0,0,1,10.581,0h.01a.163.163,0,0,1,.156.114l1.725,5.471a.163.163,0,0,1-.055.178l-1.106.865a.163.163,0,0,1-.232-.032Z" fill="#fff"/>
</svg>
