<svg xmlns="http://www.w3.org/2000/svg" width="14.821" height="15.15" viewBox="0 0 14.821 15.15">
  <g id="Group_2" data-name="Group 2" transform="translate(0 -0.002)">
    <path id="Polygon" d="M2.056,0,4.205,3.487,2.031,6.794,0,3.5Z" transform="translate(9.45 0.095) rotate(31)" fill="#fff"/>
    <path id="Polygon-2" data-name="Polygon" d="M1.922,0l1.96,3.566L1.8,7.063,0,3.5Z" transform="matrix(0.017, 1, -1, 0.017, 14.754, 5.687)" fill="#fff"/>
    <path id="Polygon_Copy" data-name="Polygon Copy" d="M1.922,0l1.96,3.566L1.8,7.063,0,3.5Z" transform="matrix(0.017, 1, -1, 0.017, 7.062, 5.687)" fill="#fff"/>
    <path id="Polygon-3" data-name="Polygon" d="M2.057,0,4.2,3.482,2.023,6.791,0,3.5Z" transform="matrix(0.848, -0.53, 0.53, 0.848, 1.781, 2.23)" fill="#fff"/>
    <path id="Polygon-4" data-name="Polygon" d="M2.057,0,4.2,3.482,2.023,6.791,0,3.5Z" transform="matrix(-0.848, 0.53, -0.53, -0.848, 13.055, 12.925)" fill="#fff"/>
    <path id="Polygon-5" data-name="Polygon" d="M2.056,0,4.205,3.487,2.031,6.794,0,3.5Z" transform="translate(5.413 15.113) rotate(-149)" fill="#fff"/>
  </g>
</svg>
