<svg xmlns="http://www.w3.org/2000/svg" width="13.4" height="13.419" viewBox="0 0 13.4 13.419">
  <path id="Oval_3" data-name="Oval 3" d="M9.521,13.419a1.655,1.655,0,0,1-1.411-.948,1.653,1.653,0,0,1-1.41.948A1.718,1.718,0,0,1,5.2,12.3a1.719,1.719,0,0,1-1.5,1.121c-.972,0-1.763-1.063-1.763-2.369a3.114,3.114,0,0,1,.119-.858A5.566,5.566,0,0,1,0,5.922C0,2.656,3.005,0,6.7,0s6.7,2.656,6.7,5.922a5.65,5.65,0,0,1-2.2,4.39,3.094,3.094,0,0,1,.088.738C11.284,12.356,10.493,13.419,9.521,13.419ZM6.612,3.033c-2.188,0-3.968,1.349-3.968,3.006s1.78,3.006,3.968,3.006S10.579,7.7,10.579,6.039,8.8,3.033,6.612,3.033Z" transform="translate(0 0)" fill="#fff"/>
</svg>
