<svg xmlns="http://www.w3.org/2000/svg" width="11.613" height="12.522" viewBox="0 0 11.613 12.522">
  <path id="Path_9" data-name="Path 9" d="M10.7,10.4s-1.577,1.267-4.715.742C3.6,10.745,2.331,8.117,2.331,6.7c0-3.349,2.476-4.112,4.149-4.112a2.954,2.954,0,0,1,2.765,2.9A2.275,2.275,0,0,1,6.962,7.863a1.686,1.686,0,0,1-1.8-1.876A1.228,1.228,0,0,1,6.548,4.772c.662,0,.889.566.889,1.053a.64.64,0,0,1-.692.661c-.314,0-.346-.159-.466-.326s.154-.8-.3-.8-.535.727-.535.727A1.532,1.532,0,0,0,6.962,7.465a1.743,1.743,0,0,0,1.8-2.1,2.486,2.486,0,0,0-2.95-1.913c-1.761.222-2.479,2-2.163,3.907s2.594,3.007,4.385,2.61,3.574-1.695,3.574-4.986S8.767-.291,5.373.035-.129,3.333.006,6.9s3.518,5.515,6.379,5.615A6.761,6.761,0,0,0,11,10.96s.394-.352.24-.627S10.7,10.4,10.7,10.4Z" fill="#fff"/>
</svg>
